# xmcd
#
# Track frame offsets:
#	150
#	14853
#	28520
#	41914
#	53316
#	65016
#	77133
#	89811
#	118064
#	132092
#	146237
#	161616
#	192548
#	205500
#
# Disc length: 2914
#
# Revision: 1
# Processed by: cddbd v1.5.1PL0 Copyright (c) Steve Scherf et al.
# Submitted via: CDex 1.51
# Normalized: r0:DSETVAR1,TDELIM( - )
#
DISCID=ce0b600e
DTITLE=Various Artist - Blues: The Essential Album
DYEAR=2004
DGENRE=Blues
TTITLE0=Little Esther with the Johnny Otis Orchestra - Lost in a Dream
TTITLE1=Big Joe Turner - S.K. Blues (part 1)
TTITLE2=Big Joe Turner - S.K. Blues (part 2)
TTITLE3=Helen Humes - Airplane Blues
TTITLE4=Johnny Otis and His Orchestra - Boogie Guitar
TTITLE5=Big Maybelle - Candy
TTITLE6=Johnny Otis with Little Esther and the Ravens - Double Crossing Blues
TTITLE7=BB King - Sweet Sixteen
TTITLE8=Junior Wells - Hoodoo Man Blues
TTITLE9=Albert Collins - Ice Pick
TTITLE10=Peter Green's Fleetwood Mac - Lazy Poker Blues
TTITLE11=Tom Waits - Get Behind The Mule
TTITLE12=Canned Heat - Goin' Up The Country
TTITLE13=Doc and Merle Watson - Mississippi Heavy Water Blues
EXTD=YEAR: 2004
EXTT0=
EXTT1=
EXTT2=
EXTT3=
EXTT4=
EXTT5=
EXTT6=
EXTT7=
EXTT8=
EXTT9=
EXTT10=
EXTT11=
EXTT12=
EXTT13=
PLAYORDER=
